<?xml version="1.0" encoding="utf-8"?>
<!-- Generator: Adobe Illustrator 24.1.0, SVG Export Plug-In . SVG Version: 6.00 Build 0)  -->
<svg version="1.1" id="Layer_1" xmlns="http://www.w3.org/2000/svg" xmlns:xlink="http://www.w3.org/1999/xlink" x="0px" y="0px"
	 viewBox="0 0 512 345.84" style="enable-background:new 0 0 512 345.84;" xml:space="preserve">
<style type="text/css">
	.st0{fill:#00953B;}
	.st1{fill:#CE0E2D;}
	.st2{fill:#5C5C60;}
	.st3{fill:#F5A800;}
	.st4{fill:#FFFFFF;}
	.st5{fill:#F19800;}
</style>
<path class="st0" d="M73.74,30.19c-10.27,18.13-2.82,41.75-2.82,41.75s24.09-5.76,34.35-23.88c10.27-18.12,2.82-41.74,2.82-41.74
	S84,12.07,73.74,30.19"/>
<path class="st0" d="M47.04,37.58c18.12,10.27,23.88,34.35,23.88,34.35s-23.63,7.45-41.75-2.82C11.05,58.86,5.29,34.77,5.29,34.77
	S28.92,27.32,47.04,37.58"/>
<path class="st1" d="M144.46,129.8c0,37.33-30.26,67.59-67.59,67.59S9.28,167.13,9.28,129.8c0-37.33,30.26-67.59,67.59-67.59
	S144.46,92.47,144.46,129.8"/>
<path class="st2" d="M180.23,200.82h-5.34c-0.93,0-1.71-0.78-1.71-1.73v-9.93c0-0.94,0.78-1.73,1.71-1.73h4.38
	c2.93,0,4.78,1.33,4.78,3.6c0,0.95-0.4,1.77-1.29,2.59c1.29,0.59,2.15,1.77,2.15,3.12C184.91,199.17,182.78,200.82,180.23,200.82
	 M179.1,190.19h-2.49v2.61h2.43c1.04,0,1.5-0.66,1.5-1.36C180.55,190.73,179.97,190.19,179.1,190.19 M179.89,195.39h-3.28v2.65h3.32
	c0.78,0,1.51-0.48,1.51-1.31C181.44,195.87,180.71,195.39,179.89,195.39"/>
<path class="st2" d="M195.03,200.81l-0.92-2.47h-4.8l-0.92,2.47h-3.36l5.18-12.53c0.26-0.62,0.84-0.98,1.5-0.98
	c0.67,0,1.23,0.36,1.49,0.98l5.18,12.53H195.03z M191.71,191.84l-1.47,3.98h2.93L191.71,191.84z"/>
<path class="st2" d="M210.59,200.92c-0.56,0.08-1.12-0.06-1.56-0.54l-6.21-6.97v7.41h-3.39v-11.79c0-0.95,0.78-1.73,1.73-1.73
	c0.48,0,0.88,0.12,1.31,0.6c1.77,2.01,3.43,3.87,6.23,7.17v-7.63h3.39v11.77C212.08,200.07,211.44,200.79,210.59,200.92"/>
<path class="st2" d="M221.25,201.03c-4.58,0-7.53-3.07-7.53-6.91c0-3.84,2.91-6.89,7.53-6.89c1.53,0,2.91,0.24,3.94,0.62l-0.75,2.85
	c-0.72-0.24-1.83-0.42-2.71-0.42c-3.31,0-4.48,1.89-4.48,3.84c0,1.93,1.17,3.86,4.48,3.86c0.88,0,1.99-0.18,2.71-0.4l0.75,2.78
	C224.19,200.79,222.66,201.03,221.25,201.03"/>
<path class="st2" d="M233.16,201.03c-4.16,0-6.95-3.09-6.95-6.89c0-3.8,2.79-6.91,6.95-6.91c4.16,0,6.95,3.11,6.95,6.91
	C240.11,197.94,237.32,201.03,233.16,201.03 M233.16,190.29c-2.25,0-3.51,1.67-3.51,3.86c0,2.19,1.26,3.84,3.51,3.84
	c2.25,0,3.51-1.65,3.51-3.84C236.68,191.96,235.41,190.29,233.16,190.29"/>
<path class="st2" d="M246.46,201.03c-1.77,0-3.81-0.42-5.51-1.01l0.62-2.69c1.55,0.4,3.42,0.8,4.94,0.8c1.5,0,2.45-0.26,2.45-0.99
	c0-0.58-1.34-1.04-3.86-2.11c-2.49-1.04-3.65-2.09-3.65-4.06c0-2.57,1.73-3.76,5.68-3.76c1.65,0,3.56,0.26,5.04,0.68l-0.5,2.77
	c-1.57-0.32-3.09-0.53-4.5-0.53c-1.89,0-2.31,0.25-2.31,0.72c0,0.66,0.88,0.95,3.27,2.01c2.75,1.22,4.28,1.77,4.28,3.98
	C252.42,200.17,249.27,201.03,246.46,201.03"/>
<path class="st2" d="M261.5,200.81h-1.71c-0.94,0-1.71-0.78-1.71-1.73v-9.93c0-0.94,0.76-1.73,1.71-1.73h1.45
	c5.65,0,8.88,3.05,8.88,6.69C270.11,197.76,267.14,200.81,261.5,200.81 M262.08,190.49h-0.56v7.27h0.56c2.49,0,4.56-1.02,4.56-3.64
	C266.64,191.51,264.57,190.49,262.08,190.49"/>
<path class="st2" d="M274.97,190.35v2.23h4.46c0.82,0,1.49,0.62,1.49,1.45c0,0.84-0.67,1.45-1.49,1.45h-4.46v2.43h6.59v2.91h-8.32
	c-0.94,0-1.71-0.78-1.71-1.73v-9.93c0-0.94,0.76-1.73,1.71-1.73h8.34v2.91H274.97z"/>
<path class="st2" d="M295.84,200.81l-0.93-2.47h-4.8l-0.92,2.47h-3.35l5.18-12.53c0.26-0.62,0.85-0.98,1.51-0.98
	c0.66,0,1.23,0.36,1.48,0.98l5.18,12.53H295.84z M292.52,191.84l-1.47,3.98h2.94L292.52,191.84z"/>
<path class="st2" d="M301.92,200.81c-0.95,0-1.69-0.78-1.69-1.73v-11.65h3.43v10.42h6.81v2.95H301.92z"/>
<rect x="311.82" y="187.44" class="st2" width="3.43" height="13.38"/>
<path class="st2" d="M328.97,200.81v-6.79l-2.51,3.72c-0.2,0.3-0.62,0.75-1.33,0.75c-0.7,0-1.15-0.46-1.35-0.77l-2.49-3.7v6.79H318
	v-11.83c0-0.92,0.66-1.69,1.65-1.69c0.61,0,1.05,0.24,1.35,0.68l4.14,6.13l4.14-6.13c0.3-0.44,0.77-0.68,1.39-0.68
	c0.91,0,1.61,0.72,1.61,1.65v11.87H328.97z"/>
<path class="st2" d="M338.35,190.35v2.23h4.46c0.82,0,1.49,0.62,1.49,1.45c0,0.84-0.67,1.45-1.49,1.45h-4.46v2.43h6.59v2.91h-8.32
	c-0.94,0-1.7-0.78-1.7-1.73v-9.93c0-0.94,0.76-1.73,1.7-1.73h8.34v2.91H338.35z"/>
<path class="st2" d="M358.17,200.92c-0.57,0.08-1.13-0.06-1.57-0.54l-6.21-6.97v7.41H347v-11.79c0-0.95,0.78-1.73,1.73-1.73
	c0.48,0,0.88,0.12,1.31,0.6c1.77,2.01,3.44,3.87,6.23,7.17v-7.63h3.39v11.77C359.66,200.07,359.01,200.79,358.17,200.92"/>
<polygon class="st2" points="368.53,190.43 368.53,200.81 365.1,200.81 365.1,190.43 360.78,190.43 360.78,187.44 372.85,187.44 
	372.85,190.43 "/>
<path class="st2" d="M379.91,201.03c-4.16,0-6.95-3.09-6.95-6.89c0-3.8,2.79-6.91,6.95-6.91c4.16,0,6.95,3.11,6.95,6.91
	C386.87,197.94,384.07,201.03,379.91,201.03 M379.91,190.29c-2.25,0-3.51,1.67-3.51,3.86c0,2.19,1.26,3.84,3.51,3.84
	c2.25,0,3.51-1.65,3.51-3.84C383.43,191.96,382.17,190.29,379.91,190.29"/>
<path class="st2" d="M393.21,201.03c-1.77,0-3.82-0.42-5.51-1.01l0.62-2.69c1.55,0.4,3.42,0.8,4.94,0.8c1.5,0,2.45-0.26,2.45-0.99
	c0-0.58-1.35-1.04-3.86-2.11c-2.49-1.04-3.65-2.09-3.65-4.06c0-2.57,1.72-3.76,5.68-3.76c1.65,0,3.56,0.26,5.04,0.68l-0.5,2.77
	c-1.56-0.32-3.09-0.53-4.5-0.53c-1.89,0-2.31,0.25-2.31,0.72c0,0.66,0.88,0.95,3.28,2.01c2.75,1.22,4.28,1.77,4.28,3.98
	C399.17,200.17,396.02,201.03,393.21,201.03"/>
<path class="st2" d="M408.25,200.81h-1.71c-0.94,0-1.71-0.78-1.71-1.73v-9.93c0-0.94,0.77-1.73,1.71-1.73h1.45
	c5.65,0,8.88,3.05,8.88,6.69C416.87,197.76,413.9,200.81,408.25,200.81 M408.83,190.49h-0.56v7.27h0.56c2.49,0,4.56-1.02,4.56-3.64
	C413.39,191.51,411.32,190.49,408.83,190.49"/>
<path class="st2" d="M421.72,190.35v2.23h4.46c0.83,0,1.49,0.62,1.49,1.45c0,0.84-0.66,1.45-1.49,1.45h-4.46v2.43h6.59v2.91H420
	c-0.94,0-1.71-0.78-1.71-1.73v-9.93c0-0.94,0.76-1.73,1.71-1.73h8.33v2.91H421.72z"/>
<path class="st2" d="M445.16,200.81v-6.79l-2.51,3.72c-0.2,0.3-0.62,0.75-1.33,0.75c-0.7,0-1.15-0.46-1.35-0.77l-2.49-3.7v6.79
	h-3.29v-11.83c0-0.92,0.66-1.69,1.65-1.69c0.6,0,1.04,0.24,1.34,0.68l4.14,6.13l4.14-6.13c0.3-0.44,0.76-0.68,1.39-0.68
	c0.9,0,1.6,0.72,1.6,1.65v11.87H445.16z"/>
<path class="st2" d="M454.53,190.35v2.23H459c0.82,0,1.48,0.62,1.48,1.44c0,0.84-0.66,1.45-1.48,1.45h-4.46v2.43h6.59v2.91h-8.32
	c-0.94,0-1.71-0.78-1.71-1.73v-9.93c0-0.94,0.77-1.73,1.71-1.73h8.34v2.91H454.53z M457.35,186.53h-2.05l1.83-2.74h3.28
	L457.35,186.53z"/>
<polygon class="st2" points="470.78,200.81 468.27,196.72 465.78,200.81 461.98,200.81 466.38,194.07 462.09,187.44 465.88,187.44 
	468.27,191.37 470.68,187.44 474.46,187.44 470.18,194.07 474.56,200.81 "/>
<rect x="476.1" y="187.44" class="st2" width="3.44" height="13.38"/>
<path class="st2" d="M488.81,201.03c-4.58,0-7.53-3.07-7.53-6.91c0-3.84,2.92-6.89,7.53-6.89c1.53,0,2.92,0.24,3.94,0.62l-0.74,2.85
	c-0.72-0.24-1.83-0.42-2.71-0.42c-3.31,0-4.48,1.89-4.48,3.84c0,1.93,1.17,3.86,4.48,3.86c0.89,0,1.99-0.18,2.71-0.4l0.74,2.78
	C491.75,200.79,490.22,201.03,488.81,201.03"/>
<path class="st2" d="M500.72,201.03c-4.16,0-6.95-3.09-6.95-6.89c0-3.8,2.79-6.91,6.95-6.91c4.15,0,6.95,3.11,6.95,6.91
	C507.67,197.94,504.88,201.03,500.72,201.03 M500.72,190.29c-2.25,0-3.52,1.67-3.52,3.86c0,2.19,1.27,3.84,3.52,3.84
	c2.25,0,3.51-1.65,3.51-3.84C504.24,191.96,502.97,190.29,500.72,190.29"/>
<path class="st2" d="M172.63,172.56c-0.14-1.26-0.28-3.21-0.28-5.58c0-5.02,0.28-16.74,0.98-35.01c0.7-18.27,1.12-28.74,1.12-31.39
	c0-3.9-0.98-7.39-1.67-8.51l-0.56-0.84c2.37-1.53,11.44-2.37,27.34-2.37c9.35,0,17.58,1.95,24.69,6c7.11,3.9,10.6,9.49,10.6,16.74
	c0,6-4.46,12-10.04,14.37v0.69c3.35,1.54,6.56,4.19,9.63,7.81c3.07,3.49,4.6,7.95,4.6,13.11c0,16.18-10.46,27.06-34.45,27.06
	C193,174.65,182.4,173.95,172.63,172.56 M209.74,140.47c-4.46-3.9-8.51-4.32-11.44-4.32c0,0.42-0.14,2.79-0.28,7.25
	c-0.14,4.46-0.14,7.95-0.14,10.32c0,4.88,1.39,6.28,4.88,6.28c7.11,0,10.74-3.35,10.74-12.27
	C213.37,144.8,212.11,142.28,209.74,140.47 M199.27,103.93l-0.7,17.44c0.7,0.14,1.54,0.14,2.79,0.14c10.04,0,11.16-6.42,11.16-9.07
	C212.53,106.71,208.06,103.93,199.27,103.93"/>
<path class="st2" d="M284.49,147.86h-19.67l-1.95,6.84c-2.23,8.37-4.18,15.48-4.18,17.86h-18.27l25.25-74.21
	c0.42-0.98,0.56-2.1,0.56-3.35c0-2.23-0.28-3.63-0.98-4.32c3.48-1.25,6.97-1.81,10.74-1.81c4.46,0,6.7,0.14,10.74,1.26
	c4.32,1.11,7.11,4.04,8.65,8.51l19.67,65.42c1.12,3.77,2.23,6.84,2.79,7.81l0.42,0.7h-27.62L284.49,147.86z M274.45,111.46l-6,22.46
	h13.11l-6-22.46H274.45z"/>
<path class="st1" d="M358.98,100.86c3.77,5.16,5.86,9.21,7.67,15.9c2.09,6.56,2.79,9.9,3.9,16.18h1.12l2.09-6.83l4.61-14.93
	l3.07-10.32c2.1-7.95,8.93-12,20.5-12c3.91,0,8.37,0.98,10.46,1.67l1.39,0.7c0,1.53,0.14,5.3,0.14,6.98
	c0,6.14-0.14,16.59-0.42,31.38c-0.14,14.65-0.28,24.97-0.28,30.69c0,6.42,0.14,10.46,0.28,12.28H388c-0.14-2.65-0.28-5.02-0.28-7.25
	c0-20.92,0.69-37.38,2.23-49.52h-1.25l-16.88,56.77h-13.67c-1.12-6.56-3.49-16.46-7.25-29.85c-3.63-13.39-7.12-22.46-10.33-27.06
	h-1.11c0.28,3.63,0.42,9.62,0.42,17.86c0,4.6,0,11.58-0.14,20.79c-0.14,9.21-0.14,15.34-0.14,18.27h-0.14h-0.14h-0.14h-0.13h-0.14
	h-0.14h-0.14h-0.14h-0.14h-0.14h-0.14h-0.14h-0.14h-0.14h-0.14h-0.14h-0.14h-0.14h-0.14h-0.14h-0.14h-0.14h-0.14h-0.14h-0.14h-0.14
	h-0.14h-0.14h-0.14h-0.14h-0.14h-0.14h-0.14h-0.14h-0.14h-0.14h-0.14h-0.14h-0.14h-0.14h-0.14h-0.14h-0.14h-0.14h-0.14h-0.14h-0.14
	h-0.14h-0.14h-0.14h-0.14h-0.14h-0.14h-0.14h-0.14h-0.14h-0.14h-0.13h-0.14h-0.14h-0.14h-0.14h-0.14h-0.14h-0.14h-0.14h-0.14h-0.13
	h-0.14h-0.14h-0.14h-0.14h-0.14h-0.14h-0.14h-0.14h-0.14h-0.14h-0.14h-0.14h-0.14h-0.14h-0.14h-0.14h-0.14h-0.14h-0.14h-0.14h-0.14
	h-0.14h-0.14h-0.14h-0.14h-0.14h-0.14h-0.14h-0.14h-0.14h-0.14h-0.14h-0.13h-0.14h-0.14h-0.14h-0.14h-0.14h-0.14h-0.14h-0.14h-0.14
	h-0.14h-0.14h-0.14h-0.14h-1.25c-0.14-0.84-0.14-2.23-0.14-4.19c0-7.39,0.28-19.52,0.98-36.69c0.7-17.15,1.12-27.48,1.12-31.11
	c0-5.72-1.81-9.21-2.23-9.35c3.35-1.53,7.39-2.37,12-2.37C345.73,88.86,353.82,93.6,358.98,100.86"/>
<path class="st1" d="M444.77,147.03c3.35-5.3,6.14-10.6,8.37-16.04c-4.32-9.63-7.81-15.91-10.74-18.97
	c-2.93-3.2-5.86-4.74-8.79-4.74c-0.7,0-1.95,0.27-3.77,0.98c-2.51-1.68-3.76-4.32-3.76-7.81c0-6,4.74-11.72,14.78-11.72
	c12.42,0,20.23,8.93,28.46,23.02h0.83c9.07-15.2,17.71-22.88,26.09-22.88c5.44,0,10.46,2.79,10.46,9.49c0,5.86-2.93,9.06-8.79,9.48
	c-0.42-0.42-1.26-0.56-2.23-0.56c-2.93,0-5.86,1.54-8.93,4.74c-6,6.14-9.21,12.98-9.21,13.95c9.07,19.67,16.6,29.43,22.6,29.43
	l4.6-0.69c1.25,2.93,1.81,5.58,1.81,7.95c0,6.56-5.16,12-17.02,12c-9.9,0-19.25-9.48-28.18-28.32h-0.7
	c-8.37,18.83-17.16,28.32-26.23,28.32c-7.11,0-13.11-4.74-13.11-11.3c0-5.44,3.9-10.74,10.04-10.74c0.7,1.54,2.23,2.23,4.6,2.23
	C438.63,154.84,441.56,152.19,444.77,147.03"/>
<path class="st3" d="M130.83,137.67c-16.84,34.37-46.81,36.59-46.81,29.81c0-6.77,15.07-11.71,15.07-19.95
	c0-4.05-3.22-6.99-6.56-6.99c-7.88,0-19.37,10.09-32.19,14.66c-3.5,1.42-7.34,2.22-11.36,2.22c-35.65,0-37.07-63.95-7.15-85.42
	C30.64,78.49,6.54,94.61,5.4,131.83c-1.1,35.82,31.86,68.98,69.99,68.98c37.54,0,68.96-37.11,68.96-66.24
	C144.29,129.75,135.04,127.17,130.83,137.67"/>
<path class="st4" d="M58.19,93.84c0.67,2.53-0.83,5.12-3.35,5.8c-2.52,0.68-5.12-0.82-5.79-3.35c-0.68-2.52,0.82-5.12,3.34-5.8
	C54.91,89.82,57.51,91.32,58.19,93.84"/>
<path class="st4" d="M99.39,82.81c0.67,2.53-0.82,5.12-3.35,5.8c-2.53,0.68-5.12-0.82-5.79-3.35c-0.68-2.53,0.82-5.12,3.34-5.79
	C96.12,78.78,98.71,80.28,99.39,82.81"/>
<path class="st4" d="M85.79,132.76c13.9-3.72,22.15-18.02,18.43-31.92l-50.34,13.49C57.6,128.23,71.89,136.49,85.79,132.76"/>
<path class="st5" d="M504.02,336.26l-0.97-1.46c-1.22-1.95-2.92-8.03-2.92-14.85c0-1.93-0.21-6.24-0.37-12.91v-43.24
	c0-18.37-14.89-33.27-33.27-33.27H42.68c-0.93,0-1.85,0.05-2.76,0.12c-19.78,0.4-31.34,1.79-34.78,4.02l0.97,1.46
	c1.22,1.94,2.92,8.03,2.92,14.85c0,1.93,0.21,26.94,0.37,33.61v22.54c0,18.37,14.9,33.27,33.27,33.27h423.81
	c0.93,0,1.84-0.05,2.75-0.12C489.03,339.88,500.58,338.49,504.02,336.26"/>
<path class="st4" d="M36.43,287.2c0-7.33,1.9-13.04,5.79-17.14c3.88-4.1,8.94-6.15,15.31-6.15c7.98,0,13.26,2.93,13.26,7.4
	c0,3.44-2.27,5.13-6.74,5.13c0,0-2.05-5.05-6.74-5.05c-1.83,0-3.3,0.8-4.47,2.49c-2.27,3.3-2.78,7.55-2.78,12.6
	c0,9.52,2.12,14.29,6.45,14.29s6.01-3.22,6.01-7.4c0-3.52-0.29-6.15-0.59-6.96l-0.14-0.59c1.54-0.37,3.88-0.59,6.88-0.59
	c3.66,0,5.49,1.54,5.49,4.62l-0.66,11.87c-3.52,4.83-9.6,7.25-18.24,7.25C43.54,308.95,36.43,301.77,36.43,287.2"/>
<path class="st4" d="M101.2,265.22c1.9-0.81,4.69-1.25,8.28-1.25c5.79,0,6.01,3,6.01,5.13c0,1.39-0.15,5.42-0.37,11.94
	c-0.22,6.52-0.37,11.14-0.51,13.7c-0.66,9.96-7.03,14.21-19.56,14.21c-3.74,0-7.4-0.88-10.91-2.93c-3.44-2.05-5.79-6.08-5.79-11.28
	c0-0.22,0.07-3.59,0.15-10.04c0.15-6.52,0.22-11.35,0.22-14.58c0-1.98-0.51-3.81-0.88-4.47l-0.29-0.44c0-0.15,3.3-1.25,8.28-1.25
	c4.98,0,6.08,1.98,6.08,5.13c0,1.91-0.07,5.86-0.14,11.94c-0.07,6.01-0.15,10.18-0.15,12.6c0,4.69,1.1,7.11,4.54,7.11
	c4.18,0,5.27-1.98,5.79-7.18c0.29-3.44,0.44-11.21,0.44-23.44c0-1.98-0.51-3.81-0.88-4.47L101.2,265.22z"/>
<path class="st4" d="M141.99,294.89h-10.33l-1.03,3.59c-1.17,4.4-2.2,8.13-2.2,9.38h-9.6l13.26-38.97c0.22-0.51,0.29-1.1,0.29-1.76
	c0-1.17-0.15-1.9-0.51-2.27c1.83-0.66,3.66-0.95,5.64-0.95c2.34,0,3.52,0.07,5.64,0.66c2.27,0.59,3.74,2.13,4.54,4.47l10.33,34.35
	c0.59,1.98,1.17,3.59,1.47,4.1l0.22,0.37h-14.5L141.99,294.89z M136.72,275.77l-3.15,11.79h6.89l-3.15-11.79H136.72z"/>
<path class="st4" d="M171.84,308.69l-6.22-0.51l-2.56-0.29c-0.07-0.95-0.15-2.27-0.15-3.81c0.07-3.59,0.29-9.3,0.66-17.22
	c0.37-7.91,0.59-13.48,0.59-16.77c0-2.13-0.51-3.88-0.88-4.47l-0.29-0.44c0.8-0.8,5.49-1.25,14.06-1.25
	c8.72,0,15.24,2.71,18.68,6.89c3.52,4.18,5.05,8.94,5.05,14.43c0,2.34-0.07,4.4-0.29,6.15c-0.22,1.76-0.73,3.81-1.61,6.23
	c-0.88,2.34-2.13,4.25-3.66,5.79c-3.15,3-9.23,5.57-17.51,5.57C176.24,308.99,174.26,308.91,171.84,308.69 M178.14,271.48h-0.95
	c-0.59,17.58-0.88,27.32-0.88,29.3h2.27c3.59,0,6.3-2.13,7.54-5.35c1.39-3.3,1.91-6.52,1.91-10.25
	C188.03,276.02,184.73,271.48,178.14,271.48"/>
<path class="st4" d="M227.28,294.89h-10.33l-1.03,3.59c-1.17,4.4-2.2,8.13-2.2,9.38h-9.6l13.26-38.97c0.22-0.51,0.29-1.1,0.29-1.76
	c0-1.17-0.15-1.9-0.51-2.27c1.83-0.66,3.66-0.95,5.64-0.95c2.34,0,3.52,0.07,5.64,0.66c2.27,0.59,3.74,2.13,4.54,4.47l10.33,34.35
	c0.59,1.98,1.17,3.59,1.47,4.1l0.22,0.37h-14.5L227.28,294.89z M222,275.77l-3.15,11.79h6.89l-3.15-11.79H222z"/>
<path class="st4" d="M248.51,307.85c-0.07-0.51-0.15-1.83-0.15-3.81c0-2.86,0.22-8.5,0.59-16.92c0.37-8.42,0.59-14.14,0.59-17.07
	c0-2.05-0.51-3.81-0.88-4.4l-0.29-0.51c1.76-0.8,4.54-1.25,8.28-1.25c2.35,0,3.95,0.59,4.76,1.25c0.37,0.29,0.66,0.81,0.88,1.47
	c0.51,1.25,0.44,1.76,0.44,3.44c-0.51,10.62-0.8,19.85-0.95,27.62h8.64c1.98,0,3.73-0.44,4.32-0.73l0.44-0.22
	c2.42,1.61,3.59,3.37,3.59,5.35c0,3.88-2.49,5.79-7.47,5.79H248.51z"/>
<path class="st4" d="M305.39,294.89h-10.33l-1.03,3.59c-1.17,4.4-2.2,8.13-2.2,9.38h-9.6l13.26-38.97c0.22-0.51,0.29-1.1,0.29-1.76
	c0-1.17-0.15-1.9-0.51-2.27c1.83-0.66,3.66-0.95,5.64-0.95c2.34,0,3.52,0.07,5.64,0.66c2.27,0.59,3.74,2.13,4.54,4.47l10.33,34.35
	c0.59,1.98,1.17,3.59,1.47,4.1l0.22,0.37h-14.5L305.39,294.89z M300.12,275.77l-3.15,11.79h6.89l-3.15-11.79H300.12z"/>
<path class="st4" d="M337.14,314.23c-2.35,3.88-6.89,5.86-13.55,5.86c-1.98,0-3.81-0.44-5.42-1.39c-1.61-0.95-2.42-2.2-2.42-3.81
	c0-1.83,1.47-3.59,3.81-3.59c0.29,0.51,1.1,0.81,2.49,0.81c3.22,0,5.42-2.34,5.42-10.84c-0.07-14.21-0.07-24.61-0.07-31.2
	c0-2.05-0.51-3.81-0.88-4.4l-0.29-0.51c1.76-0.8,4.54-1.25,8.28-1.25c2.35,0,3.95,0.59,4.76,1.25c0.37,0.29,0.66,0.8,0.88,1.46
	c0.51,1.25,0.44,1.76,0.44,3.44c0.07,8.72,0.15,16.11,0.15,22.19C340.73,303.02,339.55,310.34,337.14,314.23"/>
<path class="st4" d="M367.23,294.89H356.9l-1.03,3.59c-1.17,4.4-2.2,8.13-2.2,9.38h-9.6l13.26-38.97c0.22-0.51,0.29-1.1,0.29-1.76
	c0-1.17-0.15-1.9-0.51-2.27c1.83-0.66,3.66-0.95,5.64-0.95c2.34,0,3.52,0.07,5.64,0.66c2.27,0.59,3.74,2.13,4.54,4.47l10.33,34.35
	c0.59,1.98,1.17,3.59,1.47,4.1l0.22,0.37h-14.5L367.23,294.89z M361.95,275.77l-3.15,11.79h6.89l-3.15-11.79H361.95z"/>
<path class="st4" d="M388.57,307.85c-0.07-0.51-0.15-1.83-0.15-3.81c0-2.93,0.15-8.72,0.51-17.43c0.37-8.72,0.59-14.14,0.59-16.34
	c0-2.13-0.51-4.03-0.88-4.62l-0.29-0.51c1.39-0.8,6.15-1.25,14.29-1.25c4.1,0,8.2,0.81,12.23,2.56c4.1,1.76,6.89,5.27,6.89,9.74
	c0,5.28-2.64,10.18-6.96,12.45c1.47,4.69,3.52,7.76,5.94,9.01c2.42,1.24,3.95,1.54,6.52,1.54c0.66,0.81,1.02,1.68,1.02,2.64
	c0,3.52-2.49,7.1-7.98,7.1c-4.18,0-7.62-1.39-9.89-3.37c-3.52-3.37-5.13-8.2-6.37-13.62h-2.05c-0.15,2.49-0.22,5.86-0.22,10.11
	c0,3,0.07,4.91,0.15,5.79H388.57z M402.56,271.81l-0.59,12.38c5.35,0,7.98-2.56,7.98-7.62
	C409.96,273.42,407.47,271.81,402.56,271.81"/>
<path class="st4" d="M454.78,294.89h-10.33l-1.03,3.59c-1.17,4.4-2.2,8.13-2.2,9.38h-9.6l13.26-38.97c0.22-0.51,0.29-1.1,0.29-1.76
	c0-1.17-0.15-1.9-0.51-2.27c1.83-0.66,3.66-0.95,5.64-0.95c2.34,0,3.52,0.07,5.64,0.66c2.27,0.59,3.74,2.13,4.54,4.47l10.33,34.35
	c0.59,1.98,1.17,3.59,1.47,4.1l0.22,0.37H458L454.78,294.89z M449.5,275.77l-3.15,11.79h6.89l-3.15-11.79H449.5z"/>
</svg>
